<?xml version="1.0" encoding="utf-8"?>
<!-- Generator: Adobe Illustrator 23.1.0, SVG Export Plug-In . SVG Version: 6.00 Build 0)  -->
<svg version="1.1" id="Capa_1" xmlns="http://www.w3.org/2000/svg" xmlns:xlink="http://www.w3.org/1999/xlink" x="0px" y="0px"
	 viewBox="0 0 512 512" style="enable-background:new 0 0 512 512;" xml:space="preserve">
<style type="text/css">
	.st0{fill:#FCC232;}
</style>
<path class="st0" d="M480,304c-17.7,0-32,14.3-32,32c0,26.5-21.5,48-48,48h-65.2c30.5-34,49.2-78.8,49.2-128c0-106-86-192-192-192
	S0,150,0,256s86,192,192,192c5.4,0,10.7-0.4,16-0.8v0.8h192c61.8,0,112-50.3,112-112C512,318.3,497.7,304,480,304z M192,112
	c26.5,0,48,21.5,48,48s-21.5,48-48,48s-48-21.5-48-48S165.5,112,192,112z M208,256c0,8.8-7.2,16-16,16s-16-7.2-16-16s7.2-16,16-16
	S208,247.2,208,256z M96,304c-26.5,0-48-21.5-48-48s21.5-48,48-48s48,21.5,48,48S122.5,304,96,304z M192,400c-26.5,0-48-21.5-48-48
	s21.5-48,48-48s48,21.5,48,48S218.5,400,192,400z M288,304c-26.5,0-48-21.5-48-48s21.5-48,48-48s48,21.5,48,48S314.5,304,288,304z"
	/>
</svg>
