<?xml version="1.0" encoding="utf-8"?>
<!-- Generator: Adobe Illustrator 23.1.0, SVG Export Plug-In . SVG Version: 6.00 Build 0)  -->
<svg version="1.1" id="Layer_1" xmlns="http://www.w3.org/2000/svg" xmlns:xlink="http://www.w3.org/1999/xlink" x="0px" y="0px"
	 viewBox="0 0 22 22" style="enable-background:new 0 0 22 22;" xml:space="preserve">
<path d="M11.3,3.3c1.3,0,2.4,1.1,2.4,2.4C13.6,7,12.6,8,11.3,8S8.9,7,8.9,5.7C8.9,4.4,10,3.3,11.3,3.3z M11.3,11.4
	c3.1,0,5.7-2.5,5.7-5.7c0-3.1-2.5-5.7-5.7-5.7S5.6,2.5,5.6,5.7C5.6,8.8,8.1,11.4,11.3,11.4z M13.6,16c1.2-0.3,2.3-0.7,3.3-1.4
	c0.8-0.5,1-1.5,0.5-2.3c-0.5-0.8-1.5-1-2.3-0.5c-2.3,1.5-5.3,1.5-7.6,0c-0.8-0.5-1.8-0.3-2.3,0.5c-0.5,0.8-0.3,1.8,0.5,2.3
	c1,0.6,2.1,1.1,3.3,1.4l-3.2,3.2c-0.6,0.6-0.6,1.7,0,2.4C6.1,21.8,6.5,22,7,22s0.9-0.2,1.2-0.5l3.1-3.1l3.1,3.1
	c0.6,0.7,1.7,0.7,2.4,0c0.6-0.6,0.6-1.7,0-2.4L13.6,16z"/>
</svg>
